<svg xmlns="http://www.w3.org/2000/svg" viewBox="0 0 64 64" width="25px" height="25px"><linearGradient id="iwSP0OKBNic11za_ty1TKa" x1="32" x2="32" y1="27.961" y2="35.662" gradientUnits="userSpaceOnUse" spreadMethod="reflect"><stop offset="0" stop-color="#6dc7ff"/><stop offset="1" stop-color="#e6abff"/></linearGradient><path fill="url(#iwSP0OKBNic11za_ty1TKa)" d="M32 28A4 4 0 1 0 32 36A4 4 0 1 0 32 28Z"/><linearGradient id="iwSP0OKBNic11za_ty1TKb" x1="32" x2="32" y1="4.361" y2="59.899" gradientUnits="userSpaceOnUse" spreadMethod="reflect"><stop offset="0" stop-color="#1a6dff"/><stop offset="1" stop-color="#c822ff"/></linearGradient><path fill="url(#iwSP0OKBNic11za_ty1TKb)" d="M33.796,5.01C33.409,4.382,32.738,4.007,32,4.007s-1.409,0.375-1.796,1.003l-5.864,9.529 v0.001c-0.438,0.71-0.455,1.569-0.048,2.297C24.699,17.565,25.44,18,26.274,18H31v3h2v-3h4.726c0.834,0,1.575-0.435,1.982-1.163 c0.407-0.728,0.39-1.587-0.048-2.298L33.796,5.01z M37.726,46H33v-3h-2v3h-4.726c-0.834,0-1.575,0.435-1.982,1.163 c-0.407,0.728-0.39,1.587,0.048,2.298l5.864,9.529c0.387,0.628,1.058,1.003,1.796,1.003s1.409-0.375,1.796-1.003l5.864-9.529V49.46 c0.438-0.71,0.455-1.569,0.048-2.297C39.301,46.435,38.56,46,37.726,46z M58.99,30.204l-9.529-5.864H49.46 c-0.711-0.438-1.569-0.453-2.297-0.048C46.435,24.699,46,25.44,46,26.274V31h-3v2h3v4.726c0,0.834,0.435,1.575,1.163,1.982 c0.35,0.195,0.729,0.293,1.109,0.293c0.41,0,0.819-0.113,1.188-0.341l9.529-5.864c0.628-0.387,1.003-1.058,1.003-1.796 S59.618,30.591,58.99,30.204z M18,26.274c0-0.834-0.435-1.575-1.163-1.982c-0.727-0.405-1.586-0.391-2.298,0.048L5.01,30.204 C4.382,30.591,4.007,31.262,4.007,32s0.375,1.409,1.003,1.796l9.529,5.864h0.001c0.369,0.228,0.777,0.341,1.188,0.341 c0.38,0,0.76-0.098,1.109-0.293C17.565,39.301,18,38.56,18,37.726V33h3v-2h-3V26.274z M33,25h-2v-2h2V25z M33,41h-2v-2h2V41z M39,33 v-2h2v2H39z M23,33v-2h2v2H23z"/><linearGradient id="iwSP0OKBNic11za_ty1TKc" x1="32" x2="32" y1="6.365" y2="57.876" gradientUnits="userSpaceOnUse" spreadMethod="reflect"><stop offset="0" stop-color="#6dc7ff"/><stop offset="1" stop-color="#e6abff"/></linearGradient><path fill="url(#iwSP0OKBNic11za_ty1TKc)" d="M37.957,15.587c0.068,0.112,0.041,0.211,0.005,0.274C37.927,15.925,37.857,16,37.726,16 H26.274c-0.132,0-0.201-0.075-0.236-0.139c-0.036-0.063-0.063-0.162,0.005-0.274l5.864-9.528c0.018-0.029,0.168-0.029,0.186,0 L37.957,15.587z M37.726,48H26.274c-0.132,0-0.201,0.075-0.236,0.139c-0.036,0.063-0.063,0.162,0.005,0.274l5.864,9.528 c0.018,0.029,0.168,0.029,0.186,0l5.864-9.528c0.068-0.112,0.041-0.211,0.005-0.274C37.927,48.075,37.857,48,37.726,48z M57.941,31.907l-9.528-5.864c-0.051-0.03-0.098-0.042-0.141-0.042c-0.053,0-0.099,0.018-0.134,0.037 C48.075,26.073,48,26.143,48,26.274v11.451c0,0.132,0.075,0.201,0.139,0.236c0.062,0.035,0.16,0.062,0.274-0.005l9.528-5.864 c0.015-0.009,0.052-0.032,0.052-0.093S57.956,31.916,57.941,31.907z M15.861,26.038c-0.064-0.036-0.162-0.063-0.274,0.005 l-9.528,5.864C6.044,31.916,6.007,31.939,6.007,32s0.037,0.084,0.052,0.093l9.528,5.864c0.113,0.067,0.211,0.041,0.274,0.005 C15.925,37.927,16,37.857,16,37.726V26.274C16,26.143,15.925,26.073,15.861,26.038z"/></svg>