<svg xmlns="http://www.w3.org/2000/svg" viewBox="0 0 64 64" width="25px" height="25px"><radialGradient id="BtMnHG3LV_QjH3m2AQsN9a" cx="32" cy="34" r="32.002" gradientTransform="matrix(1 0 0 -1 0 66)" gradientUnits="userSpaceOnUse"><stop offset="0" stop-color="#eed7a2"/><stop offset=".106" stop-color="#f1dcab"/><stop offset=".437" stop-color="#f8e8c3"/><stop offset=".744" stop-color="#fcefd2"/><stop offset="1" stop-color="#fef2d7"/></radialGradient><path fill="url(#BtMnHG3LV_QjH3m2AQsN9a)" d="M63.95,36.13c-0.3,1.7-1.91,2.87-3.65,2.87h-3.8c-2.14,0-3.83,1.92-3.45,4.13	c0.3,1.7,1.91,2.87,3.65,2.87H55c1.83,0,3.28,1.64,2.95,3.54C57.7,51,56.32,52,54.83,52H54c-1.22,0-2.18,1.08-1.97,2.33	c0.16,0.99,1.08,1.67,2.08,1.67H57c2.34,0,4.21,2.01,3.98,4.39c-0.2,2.08-2.06,3.61-4.15,3.61H7.5C5.57,64,4,62.43,4,60.5	S5.57,57,7.5,57h6c0.69,0,1.32-0.28,1.77-0.73C15.72,55.82,16,55.19,16,54.5s-0.28-1.32-0.73-1.77C14.82,52.28,14.19,52,13.5,52H5	c-2.92,0-5.26-2.51-4.98-5.49C0.27,43.91,2.6,42,5.22,42H7.5c1.93,0,3.5-1.57,3.5-3.5S9.43,35,7.5,35H3c-1.71,0-3.09-1.43-3-3.16	C0.09,30.22,1.55,29,3.17,29H5c2.34,0,0.23-0.62,0-3c-0.2-2.08,7.09-5,5-5H5.5c-2.14,0-3.83-1.92-3.44-4.13	C2.35,15.17,3.96,14,5.7,14H7c2.34,0,4.21-2.01,3.98-4.39C10.78,7.53,8.92,6,6.83,6H7C5.29,6,3.91,4.57,4,2.84	C4.09,1.22,5.55,0,7.17,0H58c1.71,0,3.09,1.43,3,3.16C60.91,4.78,59.46,6,57.83,6h-5.62c-2.61,0-4.94,1.91-5.19,4.5	c-0.28,2.98,2.05,5.49,4.97,5.49C53.84,16,59.5,16,59.5,16c2.63,0,4.74,2.26,4.48,4.94C63.76,23.28,61.66,25,59.31,25H53.5	c-2.14,0-3.83,1.92-3.45,4.13c0.3,1.7,1.91,2.87,3.65,2.87h6.8C62.64,32,64.33,33.92,63.95,36.13z"/><linearGradient id="BtMnHG3LV_QjH3m2AQsN9b" x1="188.727" x2="188.727" y1="204.402" y2="263.833" gradientTransform="scale(1 -1) rotate(-35 -339.69 365.97)" gradientUnits="userSpaceOnUse"><stop offset="0" stop-color="#155cde"/><stop offset=".122" stop-color="#196ae1"/><stop offset=".509" stop-color="#2493e9"/><stop offset=".815" stop-color="#2bacee"/><stop offset="1" stop-color="#2eb5f0"/></linearGradient><path fill="url(#BtMnHG3LV_QjH3m2AQsN9b)" d="M24.436,52.62L8.139,41.209c-3.417-2.392-4.247-7.102-1.855-10.519L20.88,9.845L49.55,29.92	L34.954,50.765C32.562,54.182,27.853,55.013,24.436,52.62z"/><linearGradient id="BtMnHG3LV_QjH3m2AQsN9c" x1="188.727" x2="188.727" y1="255.225" y2="282.748" gradientTransform="scale(1 -1) rotate(-35 -339.69 365.97)" gradientUnits="userSpaceOnUse"><stop offset="0" stop-color="#155cde"/><stop offset=".122" stop-color="#196ae1"/><stop offset=".509" stop-color="#2493e9"/><stop offset=".815" stop-color="#2bacee"/><stop offset="1" stop-color="#2eb5f0"/></linearGradient><path fill="url(#BtMnHG3LV_QjH3m2AQsN9c)" d="M25.037,5.652L52.069,24.58c1.81,1.267,2.249,3.761,0.982,5.571l0,0	c-1.267,1.81-3.761,2.249-5.571,0.982L20.448,12.205c-1.81-1.267-2.249-3.761-0.982-5.571l0,0	C20.733,4.824,23.227,4.385,25.037,5.652z"/><linearGradient id="BtMnHG3LV_QjH3m2AQsN9d" x1="187.801" x2="187.801" y1="246.355" y2="275.999" gradientTransform="scale(1 -1) rotate(-35 -339.69 365.97)" gradientUnits="userSpaceOnUse"><stop offset="0" stop-color="#81dcf7"/><stop offset=".48" stop-color="#8ce1f9"/><stop offset="1" stop-color="#9ee8fd"/></linearGradient><circle cx="27" cy="30" r="4" fill="url(#BtMnHG3LV_QjH3m2AQsN9d)"/><linearGradient id="BtMnHG3LV_QjH3m2AQsN9e" x1="177.926" x2="177.926" y1="210.42" y2="188.6" gradientTransform="scale(1 -1) rotate(-35 -342.19 367.47)" gradientUnits="userSpaceOnUse"><stop offset="0" stop-color="#155cde"/><stop offset=".122" stop-color="#196ae1"/><stop offset=".509" stop-color="#2493e9"/><stop offset=".815" stop-color="#2bacee"/><stop offset="1" stop-color="#2eb5f0"/></linearGradient><path fill="url(#BtMnHG3LV_QjH3m2AQsN9e)" d="M27.476,31.946c-1.662,0.386-16.339,3.721-22.101-0.045c-0.071-0.038-0.129-0.078-0.186-0.118	c-1.278-0.895-2.082-2.117-2.333-3.538c-0.33-1.708,0.054-3.32,1.089-4.658c2.771-3.626,9.575-4.295,10.331-4.363	c0.014-0.002,0.028-0.005,0.036,0.001l-3.31,4.727c-1.603,0.477-3.126,1.169-3.838,2.098c-0.349,0.464-0.446,0.933-0.348,1.526	c0.057,0.284,0.174,0.623,0.732,0.977c3.253,2.119,13.331,0.801,18.919-0.536c1.09-0.25,2.193,0.425,2.462,1.505	C29.213,30.599,28.55,31.685,27.476,31.946z"/><linearGradient id="BtMnHG3LV_QjH3m2AQsN9f" x1="54.5" x2="54.5" y1="-18.215" y2="46.592" gradientTransform="matrix(1 0 0 -1 0 66)" gradientUnits="userSpaceOnUse"><stop offset="0" stop-color="#155cde"/><stop offset=".122" stop-color="#196ae1"/><stop offset=".509" stop-color="#2493e9"/><stop offset=".815" stop-color="#2bacee"/><stop offset="1" stop-color="#2eb5f0"/></linearGradient><path fill="url(#BtMnHG3LV_QjH3m2AQsN9f)" d="M61,48.13c0,2.348-2.192,5.87-6.5,5.87S48,50.478,48,48.13c0-3.504,3.619-9.44,5.456-11.656	c0.524-0.632,1.564-0.632,2.087,0C57.381,38.69,61,44.627,61,48.13z"/></svg>