<svg xmlns="http://www.w3.org/2000/svg" viewBox="0 0 64 64" width="24px" height="24px"><path fill="#72caaf" d="M-1.94 29.17H65.94V34.83H-1.94z" transform="rotate(-45 32.002 31.994)"/><path fill="#97e0bb" d="M53.28,10.7,10.68,53.32a2.83,2.83,0,0,0,0,4h0L57.28,10.7h0A2.83,2.83,0,0,0,53.28,10.7Z"/><path fill="#8d6c9f" d="M58.71 9.29l-4-4a1 1 0 0 0-1.41 0l-48 48a1 1 0 0 0 0 1.41l4 4a1 1 0 0 0 1.41 0l48-48A1 1 0 0 0 58.71 9.29zM10 56.59L7.41 54 54 7.41 56.59 10zM23.93 28.49a1 1 0 0 0 1.41-1.41l-1.41-1.41a1 1 0 0 0-1.41 1.41zM27.46 24.95a1 1 0 0 0 1.41-1.41l-1.41-1.41a1 1 0 0 0-1.41 1.41zM31 21.41A1 1 0 0 0 32.41 20L31 18.59A1 1 0 0 0 29.59 20zM34.54 17.88a1 1 0 0 0 1.41-1.41l-1.41-1.41a1 1 0 0 0-1.41 1.41zM38.07 14.34a1 1 0 0 0 1.41-1.41l-1.41-1.41a1 1 0 0 0-1.41 1.41zM41.61 10.81A1 1 0 0 0 43 9.39L41.61 8a1 1 0 0 0-1.41 1.41zM45.14 7.27a1 1 0 0 0 1.41-1.41L45.14 4.44a1 1 0 0 0-1.41 1.41zM48.68 3.74a1 1 0 0 0 1.41-1.41L48.68.91a1 1 0 0 0-1.41 1.41zM2.73 46.87a1 1 0 0 0-1.41 1.41L2.73 49.7a1 1 0 0 0 1.41-1.41zM7 46.46a1 1 0 0 0 .71-1.71L6.27 43.34a1 1 0 0 0-1.41 1.41l1.41 1.41A1 1 0 0 0 7 46.46zM9.81 42.63a1 1 0 0 0 1.41-1.41L9.81 39.8a1 1 0 0 0-1.41 1.41zM13.34 39.09a1 1 0 0 0 1.41-1.41l-1.42-1.41a1 1 0 0 0-1.41 1.41zM16.88 35.56a1 1 0 0 0 1.41-1.41l-1.41-1.42a1 1 0 0 0-1.41 1.41zM20.41 32a1 1 0 1 0 1.41-1.41l-1.41-1.41A1 1 0 0 0 19 30.61z"/></svg>